<svg width="30" height="20" viewBox="0 0 30 20" fill="none" xmlns="http://www.w3.org/2000/svg">
<path d="M29.8094 8.97694C29.5414 8.61032 23.1556 0 14.9999 0C6.84412 0 0.458087 8.61032 0.190372 8.97659C-0.0634572 9.3244 -0.0634572 9.79614 0.190372 10.144C0.458087 10.5106 6.84412 19.1209 14.9999 19.1209C23.1556 19.1209 29.5414 10.5105 29.8094 10.1442C30.0635 9.79649 30.0635 9.3244 29.8094 8.97694ZM14.9999 17.1429C8.99229 17.1429 3.78909 11.428 2.24883 9.55977C3.7871 7.68987 8.9794 1.97801 14.9999 1.97801C21.0072 1.97801 26.21 7.69186 27.7509 9.56112C26.2126 11.431 21.0203 17.1429 14.9999 17.1429Z"/>
<path d="M14.9999 3.6264C11.7279 3.6264 9.06577 6.2885 9.06577 9.5605C9.06577 12.8325 11.7279 15.4946 14.9999 15.4946C18.2719 15.4946 20.934 12.8325 20.934 9.5605C20.934 6.2885 18.2719 3.6264 14.9999 3.6264ZM14.9999 13.5165C12.8184 13.5165 11.0438 11.7419 11.0438 9.5605C11.0438 7.37911 12.8185 5.60448 14.9999 5.60448C17.1813 5.60448 18.9559 7.37911 18.9559 9.5605C18.9559 11.7419 17.1813 13.5165 14.9999 13.5165Z"/>
</svg>
