<svg width="30" height="30" viewBox="0 0 30 30" fill="none" xmlns="http://www.w3.org/2000/svg">
<path d="M29.0625 0H21.5625C21.045 0 20.625 0.42 20.625 0.9375V6.5625V10.3125C20.625 10.83 21.045 11.25 21.5625 11.25C22.08 11.25 22.5 10.83 22.5 10.3125V7.5H29.0625C29.58 7.5 30 7.08 30 6.5625V0.9375C30 0.42 29.58 0 29.0625 0Z" fill="#3369C0"/>
<path d="M26.25 20.625H16.875C15.8419 20.625 15 19.785 15 18.75C15 17.715 15.8419 16.875 16.875 16.875H18.9225C19.3106 17.9644 20.34 18.75 21.5625 18.75C23.115 18.75 24.375 17.49 24.375 15.9375C24.375 14.385 23.115 13.125 21.5625 13.125C20.34 13.125 19.3088 13.9106 18.9225 15H16.875C14.8069 15 13.125 16.6819 13.125 18.75C13.125 20.8181 14.8069 22.5 16.875 22.5H26.25C27.285 22.5 28.125 23.34 28.125 24.375C28.125 25.41 27.285 26.25 26.25 26.25H9.2025C8.81437 25.1606 7.785 24.375 6.5625 24.375C5.01 24.375 3.75 25.635 3.75 27.1875C3.75 28.74 5.01 30 6.5625 30C7.785 30 8.81625 29.2144 9.2025 28.125H26.25C28.3181 28.125 30 26.4431 30 24.375C30 22.3069 28.3181 20.625 26.25 20.625Z" fill="#3369C0"/>
<path d="M6.5625 5.625C2.94375 5.625 0 8.56875 0 12.1875C0 15.555 5.265 21.5194 5.865 22.1887C6.04313 22.3856 6.29625 22.5 6.5625 22.5C6.82875 22.5 7.08187 22.3856 7.26 22.1887C7.86 21.5194 13.125 15.555 13.125 12.1875C13.125 8.56875 10.1812 5.625 6.5625 5.625ZM6.5625 15C5.01 15 3.75 13.74 3.75 12.1875C3.75 10.635 5.01 9.375 6.5625 9.375C8.115 9.375 9.375 10.635 9.375 12.1875C9.375 13.74 8.115 15 6.5625 15Z" fill="#3369C0"/>
</svg>
