<svg width="29" height="20" viewBox="0 0 29 20" fill="none" xmlns="http://www.w3.org/2000/svg">
<path d="M28.1939 1.42896L19.5673 10L28.1939 18.5711C28.3498 18.2451 28.4444 17.8848 28.4444 17.5V2.50001C28.4444 2.11518 28.3498 1.7549 28.1939 1.42896Z" fill="#3369C0"/>
<path d="M25.9445 0H2.50001C2.11518 0 1.7549 0.0946112 1.42896 0.250556L12.4547 11.2207C13.4296 12.1956 15.0149 12.1956 15.9898 11.2207L27.0155 0.250556C26.6896 0.0946112 26.3293 0 25.9445 0Z" fill="#3369C0"/>
<path d="M0.250556 1.42896C0.0946111 1.7549 0 2.11518 0 2.50001V17.5C0 17.8848 0.0946111 18.2452 0.250556 18.5711L8.87717 10L0.250556 1.42896Z" fill="#3369C0"/>
<path d="M18.3889 11.1783L17.1682 12.3991C15.5438 14.0235 12.9006 14.0235 11.2762 12.3991L10.0556 11.1783L1.42896 19.7494C1.7549 19.9053 2.11518 20 2.50001 20H25.9445C26.3293 20 26.6896 19.9053 27.0155 19.7494L18.3889 11.1783Z" fill="#3369C0"/>
</svg>
