<svg width="30" height="30" viewBox="0 0 30 30" fill="none" xmlns="http://www.w3.org/2000/svg">
<path d="M19.8687 14.4412C19.6562 14.0175 19.2238 13.75 18.75 13.75H16.25V1.24998C16.25 0.55998 15.6913 0 15 0C14.3088 0 13.75 0.55998 13.75 1.24998V13.75H11.25C10.7763 13.75 10.3437 14.0174 10.1313 14.4412C9.92129 14.8649 9.96629 15.3712 10.2501 15.7499L14.0001 20.7499C14.0163 20.7712 14.0413 20.7787 14.0588 20.7987C14.1413 20.8962 14.2388 20.9712 14.3476 21.0399C14.3926 21.0674 14.4276 21.1037 14.4763 21.1262C14.6363 21.2012 14.8113 21.2499 15.0001 21.2499C15.1889 21.2499 15.3638 21.2012 15.5251 21.1262C15.5726 21.1037 15.6088 21.0674 15.6526 21.0399C15.7613 20.9712 15.8588 20.8962 15.9413 20.7987C15.9576 20.7787 15.9838 20.7712 16.0001 20.7499L19.7501 15.7499C20.035 15.3713 20.08 14.865 19.8687 14.4412Z"/>
<path d="M28.75 18.75C28.0588 18.75 27.5 19.31 27.5 20V23.75C27.5 25.8175 25.8175 27.5 23.75 27.5H6.25002C4.18254 27.5 2.50002 25.8175 2.50002 23.75V20C2.50002 19.31 1.94127 18.75 1.25004 18.75C0.55875 18.75 0 19.31 0 20V23.75C0 27.1962 2.80377 30 6.25002 30H23.75C27.1962 30 30 27.1962 30 23.75V20C30 19.31 29.4412 18.75 28.75 18.75Z"/>
</svg>
