<svg width="23" height="30" viewBox="0 0 23 30" fill="none" xmlns="http://www.w3.org/2000/svg">
<path d="M11.25 0C5.04639 0 0 5.04697 0 11.25C0 19.5496 10.3796 29.4141 10.8216 29.8303C10.9424 29.9432 11.0962 30 11.25 30C11.4038 30 11.5576 29.9432 11.6785 29.8303C12.1204 29.4141 22.5 19.5496 22.5 11.25C22.5 5.04697 17.4536 0 11.25 0ZM11.25 17.5C7.80393 17.5 4.99998 14.6961 4.99998 11.25C4.99998 7.80393 7.80398 4.99998 11.25 4.99998C14.696 4.99998 17.5 7.80398 17.5 11.25C17.5 14.696 14.6961 17.5 11.25 17.5Z" fill="#3369C0"/>
</svg>
