<svg width="42" height="18" viewBox="0 0 42 18" fill="none" xmlns="http://www.w3.org/2000/svg">
<path d="M0.976562 10.793V18H0.34375V0.9375H5.67578C7.41797 0.9375 8.76953 1.37891 9.73047 2.26172C10.6992 3.13672 11.1836 4.35547 11.1836 5.91797C11.1836 7.46484 10.7109 8.66016 9.76562 9.50391C8.82812 10.3477 7.49219 10.7773 5.75781 10.793H0.976562ZM0.976562 10.1602H5.67578C7.21484 10.1602 8.41016 9.78906 9.26172 9.04688C10.1211 8.30469 10.5508 7.26953 10.5508 5.94141C10.5508 4.56641 10.1211 3.49609 9.26172 2.73047C8.41016 1.95703 7.21484 1.57031 5.67578 1.57031H0.976562V10.1602ZM14.7578 18V0.9375H19.4805C20.8008 0.9375 21.9961 1.25 23.0664 1.875C24.1367 2.5 24.9766 3.37891 25.5859 4.51172C26.1953 5.63672 26.5078 6.89844 26.5234 8.29688V10.5117C26.5234 11.9336 26.2227 13.2148 25.6211 14.3555C25.0273 15.4961 24.1953 16.3867 23.125 17.0273C22.0547 17.668 20.8594 17.9922 19.5391 18H14.7578ZM15.3906 1.57031V17.3672H19.4805C20.6758 17.3672 21.7617 17.0781 22.7383 16.5C23.7227 15.9141 24.4922 15.1016 25.0469 14.0625C25.6016 13.0156 25.8828 11.8555 25.8906 10.582V8.39062C25.8906 7.11719 25.6172 5.96094 25.0703 4.92188C24.5312 3.88281 23.7734 3.07031 22.7969 2.48438C21.8281 1.89062 20.7539 1.58594 19.5742 1.57031H15.3906ZM39.8359 9.60938H31.0938V18H30.4609V0.9375H41.0312V1.57031H31.0938V8.95312H39.8359V9.60938Z"/>
</svg>
