<svg width="195" height="158" fill="none" xmlns="http://www.w3.org/2000/svg">
	<path d="M3.078.28c3.08-1.09 6.85 1.12 6.72 4.53.29 4.31-6.11 6.54-8.57 3.11-2.37-2.25-1.06-6.67 1.85-7.64zM40.078.28c3.09-1.09 6.85 1.13 6.72 4.53.29 4.31-6.12 6.54-8.57 3.11-2.37-2.25-1.06-6.67 1.85-7.64zM77.078.28c3.08-1.09 6.85 1.12 6.72 4.53.29 4.31-6.11 6.53-8.57 3.11-2.37-2.25-1.07-6.67 1.85-7.64zM114.078.28c3.09-1.09 6.85 1.13 6.72 4.54.28 4.3-6.11 6.52-8.57 3.1-2.37-2.25-1.07-6.67 1.85-7.64zM151.078.28c3.08-1.09 6.84 1.12 6.72 4.53.29 4.31-6.12 6.54-8.57 3.11-2.37-2.25-1.06-6.67 1.85-7.64zM188.078.28c3.08-1.09 6.85 1.12 6.72 4.53.29 4.31-6.12 6.54-8.57 3.11-2.37-2.25-1.07-6.67 1.85-7.64zM3.078 37.28c3.09-1.09 6.85 1.13 6.72 4.54.28 4.3-6.11 6.52-8.57 3.1-2.37-2.25-1.07-6.67 1.85-7.64zM40.078 37.28c3.08-1.09 6.85 1.12 6.72 4.53.29 4.31-6.11 6.53-8.57 3.11-2.37-2.25-1.07-6.66 1.85-7.64zM77.078 37.28c3.08-1.08 6.84 1.12 6.72 4.53.29 4.31-6.12 6.54-8.57 3.11-2.37-2.25-1.06-6.67 1.85-7.64zM114.078 37.28c3.08-1.09 6.85 1.12 6.72 4.53.29 4.31-6.11 6.53-8.57 3.11-2.37-2.25-1.07-6.67 1.85-7.64zM151.078 37.28c3.08-1.09 6.85 1.12 6.72 4.54.28 4.3-6.11 6.52-8.57 3.1-2.37-2.25-1.07-6.67 1.85-7.64zM188.078 37.28c3.08-1.09 6.84 1.12 6.72 4.53.29 4.31-6.11 6.54-8.57 3.11-2.37-2.25-1.07-6.67 1.85-7.64zM3.078 74.28c3.08-1.09 6.85 1.12 6.72 4.53.29 4.31-6.11 6.54-8.57 3.11-2.37-2.25-1.06-6.67 1.85-7.64zM40.078 74.28c3.09-1.09 6.85 1.12 6.72 4.53.29 4.31-6.11 6.53-8.57 3.11-2.37-2.25-1.07-6.67 1.85-7.64zM77.078 74.28c3.08-1.09 6.85 1.12 6.72 4.53.29 4.31-6.11 6.54-8.57 3.11-2.37-2.25-1.07-6.67 1.85-7.64zM114.078 74.28c3.08-1.09 6.85 1.12 6.72 4.53.29 4.31-6.11 6.54-8.57 3.11-2.37-2.25-1.07-6.67 1.85-7.64zM151.078 74.28c3.09-1.09 6.85 1.12 6.72 4.53.29 4.31-6.12 6.54-8.57 3.11-2.37-2.25-1.06-6.67 1.85-7.64zM188.078 74.28c3.08-1.09 6.84 1.12 6.72 4.53.29 4.31-6.11 6.54-8.57 3.11-2.37-2.25-1.06-6.67 1.85-7.64zM3.078 111.28c3.08-1.09 6.84 1.12 6.72 4.53.29 4.31-6.11 6.54-8.57 3.11-2.37-2.25-1.07-6.67 1.85-7.64zM40.078 111.28c3.08-1.09 6.85 1.12 6.72 4.53.29 4.31-6.11 6.54-8.57 3.11-2.37-2.25-1.07-6.67 1.85-7.64zM77.078 111.28c3.08-1.09 6.85 1.12 6.72 4.53.29 4.31-6.11 6.53-8.57 3.11-2.37-2.25-1.07-6.67 1.85-7.64zM114.088 111.28c3.08-1.09 6.84 1.12 6.71 4.53.29 4.31-6.11 6.53-8.57 3.11-2.37-2.25-1.06-6.67 1.86-7.64zM3.078 148.28c3.08-1.09 6.85 1.12 6.72 4.53.29 4.31-6.11 6.53-8.57 3.11-2.37-2.25-1.07-6.67 1.85-7.64zM40.078 148.28c3.09-1.09 6.85 1.12 6.72 4.54.28 4.3-6.12 6.52-8.57 3.1-2.37-2.25-1.06-6.67 1.85-7.64z" fill="#fff"/>
</svg>